<?xml version="1.0" encoding="UTF-8" standalone="no"?>
<svg id="svg2" xmlns:rdf="http://www.w3.org/1999/02/22-rdf-syntax-ns#" xmlns="http://www.w3.org/2000/svg" xml:space="preserve" height="30.383" viewBox="0 0 30.278 30.382574" width="30.278" version="1.1" xmlns:cc="http://creativecommons.org/ns#" xmlns:dc="http://purl.org/dc/elements/1.1/"><defs id="defs6"><clipPath id="clipPath56" clipPathUnits="userSpaceOnUse"><path id="path58" d="m182.14 428.01h55.423v55.615h-55.423v-55.615z"/></clipPath></defs><g id="g10" transform="matrix(1.25 0 0 -1.25 -227.67 565.4)"><g id="g52" transform="matrix(.43705 0 0 .43705 102.53 240.95)"><g id="g54" clip-path="url(#clipPath56)"><g id="g60" transform="translate(184.7 428.74)"><path id="path62" d="m0 0 52.326 52.326c1.367 1.367-0.754 3.488-2.121 2.121l-52.327-52.326c-1.366-1.367 0.754-3.489 2.122-2.121"/></g><g id="g64" transform="translate(237.12 430.58)"><path id="path66" d="m0 0l-52.326 52.326c-1.367 1.367-3.489-0.754-2.121-2.121 17.442-17.442 34.884-34.885 52.325-52.327 1.368-1.366 3.49 0.754 2.122 2.122"/></g></g></g></g></svg>
